<svg xmlns="http://www.w3.org/2000/svg" viewBox="0 0 900 992" width="100%" role="img" aria-labelledby="idTitle idDesc">
<title id="idTitle">Identity core — live holographic system</title>
<desc id="idDesc">Kartikeya Yadav — AI/ML engineer and founder. Live status: 31 public repositories, 8.8MB of code, 143 contributions in the last 30 days, 75% of showcased projects independently verified deployed. Regenerated automatically by GitHub Actions.</desc>
<defs>
    <filter id="glow" x="-250%" y="-250%" width="600%" height="600%"><feGaussianBlur stdDeviation="2.6" result="b"/><feMerge><feMergeNode in="b"/><feMergeNode in="SourceGraphic"/></feMerge></filter>
    <filter id="glowSoft" x="-250%" y="-250%" width="600%" height="600%"><feGaussianBlur stdDeviation="1.3" result="b"/><feMerge><feMergeNode in="b"/><feMergeNode in="SourceGraphic"/></feMerge></filter>
    <radialGradient id="coreGrad" cx="50%" cy="50%" r="50%">
      <stop offset="0%" stop-color="#ffffff"/><stop offset="35%" stop-color="#8ff4ff"/>
      <stop offset="75%" stop-color="#7c3aed"/><stop offset="100%" stop-color="#7c3aed" stop-opacity="0"/>
    </radialGradient>
    <linearGradient id="scanGradV" x1="0" y1="0" x2="0" y2="1">
      <stop offset="0%" stop-color="#22d3ee" stop-opacity="0"/><stop offset="50%" stop-color="#22d3ee"/>
      <stop offset="100%" stop-color="#22d3ee" stop-opacity="0"/>
    </linearGradient>
  </defs>
<rect x="0.5" y="0.5" width="899" height="991" rx="14" fill="#0a0a0a" stroke="#1f1f1f"/>
<text x="20" y="24" font-family="Consolas, 'SF Mono', monospace" font-size="10" letter-spacing="1" fill="#666">// SYSTEM.02 &gt; WHO_AM_I.EXE</text>
<circle cx="880" cy="20" r="3" fill="#a855f7"><animate attributeName="opacity" values="1;0.3;1" dur="2s" repeatCount="indefinite"/></circle>
<rect x="20.0" y="40" width="164.0" height="112" rx="10" fill="#101014" stroke="#1f1f24"/><text x="34.0" y="62" font-family="Consolas, monospace" font-size="10" letter-spacing="1" fill="#777">SYSTEM STATUS</text>
<circle cx="39.0" cy="94" r="4.5" fill="#22c55e" filter="url(#glow)"><animate attributeName="opacity" values="1;0.4;1" dur="1.8s" repeatCount="indefinite"/></circle>
<text x="52.0" y="101" font-family="Helvetica, Arial, sans-serif" font-size="20" font-weight="800" fill="#22c55e">ONLINE</text>
<path d="M34.0,132 h10 l4,-13 l6,22 l4,-17 l3,8 h102.0" fill="none" stroke="#22c55e" stroke-width="1.8" stroke-linejoin="round" stroke-linecap="round" opacity="0.85" filter="url(#glowSoft)"/>
<rect x="194.0" y="40" width="164.0" height="112" rx="10" fill="#101014" stroke="#1f1f24"/><text x="208.0" y="62" font-family="Consolas, monospace" font-size="10" letter-spacing="1" fill="#777">CORE ID</text>
<text x="208.0" y="98" font-family="Consolas, monospace" font-size="15" font-weight="700" fill="#e8e8e8">kartikeyajay2006</text>
<path d="M324.0,126 Q324.0,110 332.0,110 Q340.0,110 340.0,118 Q340.0,128 332.0,128" fill="none" stroke="#a855f7" stroke-width="1.3" opacity="0.85"/><path d="M328.0,124 Q328.0,115 332.0,115 Q336.0,115 336.0,122" fill="none" stroke="#a855f7" stroke-width="1.3" opacity="0.85"/>
<text x="208.0" y="130" font-family="Consolas, monospace" font-size="9" fill="#666">VERIFIED IDENTITY</text>
<rect x="368.0" y="40" width="164.0" height="112" rx="10" fill="#101014" stroke="#1f1f24"/><text x="382.0" y="62" font-family="Consolas, monospace" font-size="10" letter-spacing="1" fill="#777">VERIFIED</text>
<text x="382.0" y="98" font-family="Helvetica, Arial, sans-serif" font-size="28" font-weight="800" fill="#22d3ee">75%</text>
<rect x="382.0" y="116" width="19.7" height="9" rx="2" fill="#22d3ee" filter="url(#glowSoft)"/>
<rect x="404.7" y="116" width="19.7" height="9" rx="2" fill="#22d3ee" filter="url(#glowSoft)"/>
<rect x="427.3" y="116" width="19.7" height="9" rx="2" fill="#22d3ee" filter="url(#glowSoft)"/>
<rect x="450.0" y="116" width="19.7" height="9" rx="2" fill="#22d3ee" filter="url(#glowSoft)"/>
<rect x="472.7" y="116" width="19.7" height="9" rx="2" fill="#1f1f24"/>
<rect x="495.3" y="116" width="19.7" height="9" rx="2" fill="#1f1f24"/>
<text x="382.0" y="140" font-family="Consolas, monospace" font-size="9" fill="#666">DEPLOYMENT VERIFIED</text>
<rect x="542.0" y="40" width="164.0" height="112" rx="10" fill="#101014" stroke="#1f1f24"/><text x="556.0" y="62" font-family="Consolas, monospace" font-size="10" letter-spacing="1" fill="#777">CODE VOLUME</text>
<text x="556.0" y="98" font-family="Helvetica, Arial, sans-serif" font-size="28" font-weight="800" fill="#f5a623">8.8MB</text>
<rect x="556.0" y="128.0" width="19.7" height="6" rx="1.5" fill="#f5a623" opacity="0.9" filter="url(#glowSoft)"/>
<rect x="578.7" y="123.0" width="19.7" height="11" rx="1.5" fill="#f5a623" opacity="0.9" filter="url(#glowSoft)"/>
<rect x="601.3" y="126.0" width="19.7" height="8" rx="1.5" fill="#f5a623" opacity="0.9" filter="url(#glowSoft)"/>
<rect x="624.0" y="119.0" width="19.7" height="15" rx="1.5" fill="#f5a623" opacity="0.9" filter="url(#glowSoft)"/>
<rect x="646.7" y="124.0" width="19.7" height="10" rx="1.5" fill="#f5a623" opacity="0.9" filter="url(#glowSoft)"/>
<rect x="669.3" y="116.0" width="19.7" height="18" rx="1.5" fill="#f5a623" opacity="0.9" filter="url(#glowSoft)"/>
<text x="556.0" y="140" font-family="Consolas, monospace" font-size="9" fill="#666">ACROSS 31 REPOS</text>
<rect x="716.0" y="40" width="164.0" height="112" rx="10" fill="#101014" stroke="#1f1f24"/><text x="730.0" y="62" font-family="Consolas, monospace" font-size="10" letter-spacing="1" fill="#777">ACTIVITY</text>
<circle cx="735.0" cy="94" r="8" fill="none" stroke="#ec4899" stroke-width="1.6" opacity="0.6"><animate attributeName="r" values="5;11;5" dur="2.2s" repeatCount="indefinite"/><animate attributeName="opacity" values="0.8;0;0.8" dur="2.2s" repeatCount="indefinite"/></circle>
<circle cx="735.0" cy="94" r="4.5" fill="#ec4899" filter="url(#glow)"/>
<text x="750.0" y="101" font-family="Helvetica, Arial, sans-serif" font-size="20" font-weight="800" fill="#ec4899">LIVE</text>
<text x="730.0" y="130" font-family="Consolas, monospace" font-size="9.5" fill="#999">143 contributions &#183; 30d</text>
<rect x="20" y="170" width="400" height="430" rx="12" fill="#0d0d10" stroke="#1f1f24"/>
<text x="36" y="194" font-family="Consolas, monospace" font-size="11" font-weight="700" letter-spacing="1" fill="#ddd">IDENTITY CORE</text>
<g opacity="0"><animate attributeName="opacity" values="0;1" dur="0.7s" begin="1s" fill="freeze"/>
<ellipse cx="220.0" cy="375.0" rx="100" ry="34" fill="none" stroke="#a855f7" stroke-width="1" opacity="0.32"/><circle r="2.1" fill="#a855f7" filter="url(#glowSoft)"><animateMotion dur="14s" begin="-0.0s" repeatCount="indefinite" path="M120.0,375.0 C120.0,356.2 164.8,341.0 220.0,341.0 C275.2,341.0 320.0,356.2 320.0,375.0 C320.0,393.8 275.2,409.0 220.0,409.0 C164.8,409.0 120.0,393.8 120.0,375.0 Z"/></circle><circle r="2.1" fill="#a855f7" filter="url(#glowSoft)"><animateMotion dur="14s" begin="-7.0s" repeatCount="indefinite" path="M120.0,375.0 C120.0,356.2 164.8,341.0 220.0,341.0 C275.2,341.0 320.0,356.2 320.0,375.0 C320.0,393.8 275.2,409.0 220.0,409.0 C164.8,409.0 120.0,393.8 120.0,375.0 Z"/></circle>
<ellipse cx="220.0" cy="375.0" rx="122" ry="40" fill="none" stroke="#22d3ee" stroke-width="1" opacity="0.32"/><circle r="2.1" fill="#22d3ee" filter="url(#glowSoft)"><animateMotion dur="20s" begin="-0.0s" repeatCount="indefinite" path="M98.0,375.0 C98.0,352.9 152.6,335.0 220.0,335.0 C287.4,335.0 342.0,352.9 342.0,375.0 C342.0,397.1 287.4,415.0 220.0,415.0 C152.6,415.0 98.0,397.1 98.0,375.0 Z"/></circle><circle r="2.1" fill="#22d3ee" filter="url(#glowSoft)"><animateMotion dur="20s" begin="-10.0s" repeatCount="indefinite" path="M98.0,375.0 C98.0,352.9 152.6,335.0 220.0,335.0 C287.4,335.0 342.0,352.9 342.0,375.0 C342.0,397.1 287.4,415.0 220.0,415.0 C152.6,415.0 98.0,397.1 98.0,375.0 Z"/></circle>
</g>
<g opacity="0"><animate attributeName="opacity" values="0;1" dur="0.8s" begin="2s" fill="freeze"/>
<g transform="translate(220.0,375.0)">
  <animateTransform attributeName="transform" type="scale" additive="sum" values="1,1; 1.06,1; 0.95,1; 1.06,1; 1,1" dur="11s" repeatCount="indefinite" calcMode="linear"/>
<g transform="translate(-220.0,-375.0)">
  <animateTransform attributeName="transform" type="rotate" additive="sum" values="-6 220.0 375.0; 6 220.0 375.0; -6 220.0 375.0" dur="11s" repeatCount="indefinite" calcMode="linear"/>
<path d="M220.0,297.0 Q280.0,317.0 278.0,375.0 Q276.0,441.0 220.0,457.0 Q164.0,441.0 162.0,375.0 Q160.0,317.0 220.0,297.0 Z" fill="none" stroke="#22d3ee" stroke-width="1" opacity="0.25"/>
<ellipse cx="220.0" cy="297.0" rx="0.0" ry="3.0" fill="none" stroke="#7dd3fc" stroke-width="0.8" opacity="0.4"/>
<ellipse cx="220.0" cy="323.7" rx="38.3" ry="8.4" fill="none" stroke="#7dd3fc" stroke-width="0.8" opacity="0.4"/>
<ellipse cx="220.0" cy="350.3" rx="53.2" ry="11.7" fill="none" stroke="#7dd3fc" stroke-width="0.8" opacity="0.4"/>
<ellipse cx="220.0" cy="377.0" rx="58.0" ry="12.8" fill="none" stroke="#7dd3fc" stroke-width="0.8" opacity="0.4"/>
<ellipse cx="220.0" cy="403.7" rx="53.2" ry="11.7" fill="none" stroke="#7dd3fc" stroke-width="0.8" opacity="0.4"/>
<ellipse cx="220.0" cy="430.3" rx="38.3" ry="8.4" fill="none" stroke="#7dd3fc" stroke-width="0.8" opacity="0.4"/>
<ellipse cx="220.0" cy="457.0" rx="0.0" ry="3.0" fill="none" stroke="#7dd3fc" stroke-width="0.8" opacity="0.4"/>
<path d="M220.0,297.0 L183.3,323.7 L168.9,350.3 L164.3,377.0 L168.9,403.7 L183.3,430.3 L220.0,457.0" fill="none" stroke="#7dd3fc" stroke-width="0.7" opacity="0.28"/>
<path d="M220.0,297.0 L201.6,323.7 L194.5,350.3 L192.2,377.0 L194.5,403.7 L201.6,430.3 L220.0,457.0" fill="none" stroke="#7dd3fc" stroke-width="0.7" opacity="0.28"/>
<path d="M220.0,297.0 L220.0,323.7 L220.0,350.3 L220.0,377.0 L220.0,403.7 L220.0,430.3 L220.0,457.0" fill="none" stroke="#7dd3fc" stroke-width="0.7" opacity="0.28"/>
<path d="M220.0,297.0 L238.4,323.7 L245.5,350.3 L247.8,377.0 L245.5,403.7 L238.4,430.3 L220.0,457.0" fill="none" stroke="#7dd3fc" stroke-width="0.7" opacity="0.28"/>
<path d="M220.0,297.0 L256.7,323.7 L271.1,350.3 L275.7,377.0 L271.1,403.7 L256.7,430.3 L220.0,457.0" fill="none" stroke="#7dd3fc" stroke-width="0.7" opacity="0.28"/>
<circle cx="220.0" cy="297.0" r="1.5" fill="#a5f3fc" opacity="0.75"><animate attributeName="opacity" values="0.9;0.15;0.9" dur="2.2s" begin="0.0s" repeatCount="indefinite"/></circle>
<circle cx="220.0" cy="297.0" r="1.5" fill="#a5f3fc" opacity="0.75"></circle>
<circle cx="220.0" cy="297.0" r="1.5" fill="#a5f3fc" opacity="0.75"></circle>
<circle cx="220.0" cy="297.0" r="1.5" fill="#a5f3fc" opacity="0.75"></circle>
<circle cx="220.0" cy="297.0" r="1.5" fill="#a5f3fc" opacity="0.75"><animate attributeName="opacity" values="0.9;0.15;0.9" dur="3.4s" begin="1.2s" repeatCount="indefinite"/></circle>
<circle cx="220.0" cy="297.0" r="1.5" fill="#a5f3fc" opacity="0.75"></circle>
<circle cx="181.7" cy="323.7" r="1.5" fill="#a5f3fc" opacity="0.75"></circle>
<circle cx="189.0" cy="323.7" r="1.5" fill="#a5f3fc" opacity="0.75"></circle>
<circle cx="208.2" cy="323.7" r="1.5" fill="#a5f3fc" opacity="0.75"><animate attributeName="opacity" values="0.9;0.15;0.9" dur="3.1s" begin="0.3s" repeatCount="indefinite"/></circle>
<circle cx="231.8" cy="323.7" r="1.5" fill="#a5f3fc" opacity="0.75"></circle>
<circle cx="251.0" cy="323.7" r="1.5" fill="#a5f3fc" opacity="0.75"></circle>
<circle cx="258.3" cy="323.7" r="1.5" fill="#a5f3fc" opacity="0.75"></circle>
<circle cx="166.8" cy="350.3" r="1.5" fill="#a5f3fc" opacity="0.75"><animate attributeName="opacity" values="0.9;0.15;0.9" dur="2.8s" begin="1.5s" repeatCount="indefinite"/></circle>
<circle cx="177.0" cy="350.3" r="1.5" fill="#a5f3fc" opacity="0.75"></circle>
<circle cx="203.6" cy="350.3" r="1.5" fill="#a5f3fc" opacity="0.75"></circle>
<circle cx="236.4" cy="350.3" r="1.5" fill="#a5f3fc" opacity="0.75"></circle>
<circle cx="263.0" cy="350.3" r="1.5" fill="#a5f3fc" opacity="0.75"><animate attributeName="opacity" values="0.9;0.15;0.9" dur="2.5s" begin="0.6s" repeatCount="indefinite"/></circle>
<circle cx="273.2" cy="350.3" r="1.5" fill="#a5f3fc" opacity="0.75"></circle>
<circle cx="162.0" cy="377.0" r="1.5" fill="#a5f3fc" opacity="0.75"></circle>
<circle cx="173.1" cy="377.0" r="1.5" fill="#a5f3fc" opacity="0.75"></circle>
<circle cx="202.1" cy="377.0" r="1.5" fill="#a5f3fc" opacity="0.75"><animate attributeName="opacity" values="0.9;0.15;0.9" dur="2.2s" begin="1.8s" repeatCount="indefinite"/></circle>
<circle cx="237.9" cy="377.0" r="1.5" fill="#a5f3fc" opacity="0.75"></circle>
<circle cx="266.9" cy="377.0" r="1.5" fill="#a5f3fc" opacity="0.75"></circle>
<circle cx="278.0" cy="377.0" r="1.5" fill="#a5f3fc" opacity="0.75"></circle>
<circle cx="166.8" cy="403.7" r="1.5" fill="#a5f3fc" opacity="0.75"><animate attributeName="opacity" values="0.9;0.15;0.9" dur="3.4s" begin="0.9s" repeatCount="indefinite"/></circle>
<circle cx="177.0" cy="403.7" r="1.5" fill="#a5f3fc" opacity="0.75"></circle>
<circle cx="203.6" cy="403.7" r="1.5" fill="#a5f3fc" opacity="0.75"></circle>
<circle cx="236.4" cy="403.7" r="1.5" fill="#a5f3fc" opacity="0.75"></circle>
<circle cx="263.0" cy="403.7" r="1.5" fill="#a5f3fc" opacity="0.75"><animate attributeName="opacity" values="0.9;0.15;0.9" dur="3.1s" begin="0.0s" repeatCount="indefinite"/></circle>
<circle cx="273.2" cy="403.7" r="1.5" fill="#a5f3fc" opacity="0.75"></circle>
<circle cx="181.7" cy="430.3" r="1.5" fill="#a5f3fc" opacity="0.75"></circle>
<circle cx="189.0" cy="430.3" r="1.5" fill="#a5f3fc" opacity="0.75"></circle>
<circle cx="208.2" cy="430.3" r="1.5" fill="#a5f3fc" opacity="0.75"><animate attributeName="opacity" values="0.9;0.15;0.9" dur="2.8s" begin="1.2s" repeatCount="indefinite"/></circle>
<circle cx="231.8" cy="430.3" r="1.5" fill="#a5f3fc" opacity="0.75"></circle>
<circle cx="251.0" cy="430.3" r="1.5" fill="#a5f3fc" opacity="0.75"></circle>
<circle cx="258.3" cy="430.3" r="1.5" fill="#a5f3fc" opacity="0.75"></circle>
<circle cx="220.0" cy="457.0" r="1.5" fill="#a5f3fc" opacity="0.75"><animate attributeName="opacity" values="0.9;0.15;0.9" dur="2.5s" begin="0.3s" repeatCount="indefinite"/></circle>
<circle cx="220.0" cy="457.0" r="1.5" fill="#a5f3fc" opacity="0.75"></circle>
<circle cx="220.0" cy="457.0" r="1.5" fill="#a5f3fc" opacity="0.75"></circle>
<circle cx="220.0" cy="457.0" r="1.5" fill="#a5f3fc" opacity="0.75"></circle>
<circle cx="220.0" cy="457.0" r="1.5" fill="#a5f3fc" opacity="0.75"><animate attributeName="opacity" values="0.9;0.15;0.9" dur="2.2s" begin="1.5s" repeatCount="indefinite"/></circle>
<circle cx="220.0" cy="457.0" r="1.5" fill="#a5f3fc" opacity="0.75"></circle>
<rect x="158.0" y="291.0" width="124" height="4" fill="url(#scanGradV)" opacity="0.8"><animate attributeName="y" values="291.0;455.0" dur="4.5s" repeatCount="indefinite" calcMode="linear"/></rect>
<g opacity="0"><animate attributeName="opacity" values="0;1" dur="0.5s" begin="3s" fill="freeze"/>
<circle cx="220.0" cy="369.0" r="9" fill="url(#coreGrad)" filter="url(#glow)"><animate attributeName="r" values="7;11;7" dur="2.6s" repeatCount="indefinite"/></circle>
<circle cx="220.0" cy="369.0" r="9" fill="none" stroke="#ffffff" opacity="0.5"><animate attributeName="r" values="9;30;9" dur="4s" repeatCount="indefinite"/><animate attributeName="opacity" values="0.5;0;0.5" dur="4s" repeatCount="indefinite"/></circle>
</g>
</g></g></g>
<g opacity="0"><animate attributeName="opacity" values="0;1" dur="0.7s" begin="1s" fill="freeze"/>
<ellipse cx="220.0" cy="375.0" rx="144" ry="45" fill="none" stroke="#22c55e" stroke-width="1" opacity="0.32"/><circle r="2.1" fill="#22c55e" filter="url(#glowSoft)"><animateMotion dur="17s" begin="-0.0s" repeatCount="indefinite" path="M76.0,375.0 C76.0,350.1 140.5,330.0 220.0,330.0 C299.5,330.0 364.0,350.1 364.0,375.0 C364.0,399.9 299.5,420.0 220.0,420.0 C140.5,420.0 76.0,399.9 76.0,375.0 Z"/></circle><circle r="2.1" fill="#22c55e" filter="url(#glowSoft)"><animateMotion dur="17s" begin="-8.5s" repeatCount="indefinite" path="M76.0,375.0 C76.0,350.1 140.5,330.0 220.0,330.0 C299.5,330.0 364.0,350.1 364.0,375.0 C364.0,399.9 299.5,420.0 220.0,420.0 C140.5,420.0 76.0,399.9 76.0,375.0 Z"/></circle>
<ellipse cx="220.0" cy="375.0" rx="166" ry="50" fill="none" stroke="#ec4899" stroke-width="1" opacity="0.32"/><circle r="2.1" fill="#ec4899" filter="url(#glowSoft)"><animateMotion dur="24s" begin="-0.0s" repeatCount="indefinite" path="M54.0,375.0 C54.0,347.4 128.3,325.0 220.0,325.0 C311.7,325.0 386.0,347.4 386.0,375.0 C386.0,402.6 311.7,425.0 220.0,425.0 C128.3,425.0 54.0,402.6 54.0,375.0 Z"/></circle><circle r="2.1" fill="#ec4899" filter="url(#glowSoft)"><animateMotion dur="24s" begin="-12.0s" repeatCount="indefinite" path="M54.0,375.0 C54.0,347.4 128.3,325.0 220.0,325.0 C311.7,325.0 386.0,347.4 386.0,375.0 C386.0,402.6 311.7,425.0 220.0,425.0 C128.3,425.0 54.0,402.6 54.0,375.0 Z"/></circle>
<ellipse cx="220.0" cy="375.0" rx="188" ry="55" fill="none" stroke="#3b82f6" stroke-width="1" opacity="0.32"/><circle r="2.1" fill="#3b82f6" filter="url(#glowSoft)"><animateMotion dur="19s" begin="-0.0s" repeatCount="indefinite" path="M32.0,375.0 C32.0,344.6 116.2,320.0 220.0,320.0 C323.8,320.0 408.0,344.6 408.0,375.0 C408.0,405.4 323.8,430.0 220.0,430.0 C116.2,430.0 32.0,405.4 32.0,375.0 Z"/></circle><circle r="2.1" fill="#3b82f6" filter="url(#glowSoft)"><animateMotion dur="19s" begin="-9.5s" repeatCount="indefinite" path="M32.0,375.0 C32.0,344.6 116.2,320.0 220.0,320.0 C323.8,320.0 408.0,344.6 408.0,375.0 C408.0,405.4 323.8,430.0 220.0,430.0 C116.2,430.0 32.0,405.4 32.0,375.0 Z"/></circle>
</g>
<g opacity="0"><animate attributeName="opacity" values="0;1" dur="0.8s" begin="4s" fill="freeze"/>
<line x1="220.0" y1="369.0" x2="295.8" y2="298.4" stroke="#a855f7" stroke-width="0.6" opacity="0.15"/>
<circle r="1.8" fill="#a855f7" filter="url(#glowSoft)"><animateMotion dur="3.4s" begin="-0.0s" repeatCount="indefinite" keyPoints="0;1;1;1" keyTimes="0;0.32;0.4;1" calcMode="linear" path="M220.0,369.0 L295.8,298.4"/><animate attributeName="opacity" values="0;1;1;0;0" keyTimes="0;0.05;0.32;0.4;1" dur="3.4s" begin="-0.0s" repeatCount="indefinite"/></circle>
<circle cx="295.8" cy="298.4" r="14" fill="#a855f7" opacity="0.15" filter="url(#glowSoft)"/>
<circle cx="295.8" cy="298.4" r="11.5" fill="#0b0b0d" stroke="#a855f7" stroke-width="1.5"/>
<polyline points="291.84893794301166,295.1955556881022 289.4489379430117,298.3955556881022 291.84893794301166,301.5955556881022" fill="none" stroke="#a855f7" stroke-width="1.1199999999999999" stroke-linecap="round" stroke-linejoin="round"/><polyline points="299.84893794301166,295.1955556881022 302.24893794301164,298.3955556881022 299.84893794301166,301.5955556881022" fill="none" stroke="#a855f7" stroke-width="1.1199999999999999" stroke-linecap="round" stroke-linejoin="round"/>
<text x="295.8" y="324.4" text-anchor="middle" font-family="Consolas, monospace" font-size="9" font-weight="700" letter-spacing="0.5" fill="#a855f7">ENGINEER</text>
<text x="295.8" y="336.4" text-anchor="middle" font-family="Helvetica, Arial, sans-serif" font-size="8" fill="#999">I engineer systems</text>
<text x="295.8" y="348.4" text-anchor="middle" font-family="Helvetica, Arial, sans-serif" font-size="8" fill="#999">that scale.</text>
<line x1="220.0" y1="369.0" x2="334.0" y2="400.9" stroke="#22d3ee" stroke-width="0.6" opacity="0.15"/>
<circle r="1.8" fill="#22d3ee" filter="url(#glowSoft)"><animateMotion dur="3.4s" begin="-0.7s" repeatCount="indefinite" keyPoints="0;1;1;1" keyTimes="0;0.32;0.4;1" calcMode="linear" path="M220.0,369.0 L334.0,400.9"/><animate attributeName="opacity" values="0;1;1;0;0" keyTimes="0;0.05;0.32;0.4;1" dur="3.4s" begin="-0.7s" repeatCount="indefinite"/></circle>
<circle cx="334.0" cy="400.9" r="14" fill="#22d3ee" opacity="0.15" filter="url(#glowSoft)"/>
<circle cx="334.0" cy="400.9" r="11.5" fill="#0b0b0d" stroke="#22d3ee" stroke-width="1.5"/>
<circle cx="333.97924750211007" cy="400.88190451025207" r="5.6000000000000005" fill="none" stroke="#22d3ee" stroke-width="1.04"/><path d="M331.5792475021101,397.6819045102521 Q333.97924750211007,400.88190451025207 331.5792475021101,404.08190451025206" fill="none" stroke="#22d3ee" stroke-width="0.8"/><path d="M336.37924750211005,397.6819045102521 Q333.97924750211007,400.88190451025207 336.37924750211005,404.08190451025206" fill="none" stroke="#22d3ee" stroke-width="0.8"/>
<text x="334.0" y="370.9" text-anchor="middle" font-family="Consolas, monospace" font-size="9" font-weight="700" letter-spacing="0.5" fill="#22d3ee">PROBLEM SOLVER</text>
<text x="334.0" y="382.9" text-anchor="middle" font-family="Helvetica, Arial, sans-serif" font-size="8" fill="#999">I turn complexity</text>
<text x="334.0" y="394.9" text-anchor="middle" font-family="Helvetica, Arial, sans-serif" font-size="8" fill="#999">into clarity.</text>
<line x1="220.0" y1="369.0" x2="240.5" y2="473.5" stroke="#ec4899" stroke-width="0.6" opacity="0.15"/>
<circle r="1.8" fill="#ec4899" filter="url(#glowSoft)"><animateMotion dur="3.4s" begin="-1.4s" repeatCount="indefinite" keyPoints="0;1;1;1" keyTimes="0;0.32;0.4;1" calcMode="linear" path="M220.0,369.0 L240.5,473.5"/><animate attributeName="opacity" values="0;1;1;0;0" keyTimes="0;0.05;0.32;0.4;1" dur="3.4s" begin="-1.4s" repeatCount="indefinite"/></circle>
<circle cx="240.5" cy="473.5" r="14" fill="#ec4899" opacity="0.15" filter="url(#glowSoft)"/>
<circle cx="240.5" cy="473.5" r="11.5" fill="#0b0b0d" stroke="#ec4899" stroke-width="1.5"/>
<path d="M240.4904849646978,467.0807753012208 L242.4104849646978,471.56077530122076 L246.8904849646978,473.4807753012208 L242.4104849646978,475.4007753012208 L240.4904849646978,479.88077530122075 L238.5704849646978,475.4007753012208 L234.0904849646978,473.4807753012208 L238.5704849646978,471.56077530122076 Z" fill="#ec4899"/>
<text x="240.5" y="443.5" text-anchor="middle" font-family="Consolas, monospace" font-size="9" font-weight="700" letter-spacing="0.5" fill="#ec4899">AI NATIVE</text>
<text x="240.5" y="455.5" text-anchor="middle" font-family="Helvetica, Arial, sans-serif" font-size="8" fill="#999">I work at the intersection</text>
<text x="240.5" y="467.5" text-anchor="middle" font-family="Helvetica, Arial, sans-serif" font-size="8" fill="#999">of AI &amp; systems.</text>
<line x1="220.0" y1="369.0" x2="113.1" y2="417.3" stroke="#eab308" stroke-width="0.6" opacity="0.15"/>
<circle r="1.8" fill="#eab308" filter="url(#glowSoft)"><animateMotion dur="3.4s" begin="-2.1s" repeatCount="indefinite" keyPoints="0;1;1;1" keyTimes="0;0.32;0.4;1" calcMode="linear" path="M220.0,369.0 L113.1,417.3"/><animate attributeName="opacity" values="0;1;1;0;0" keyTimes="0;0.05;0.32;0.4;1" dur="3.4s" begin="-2.1s" repeatCount="indefinite"/></circle>
<circle cx="113.1" cy="417.3" r="14" fill="#eab308" opacity="0.15" filter="url(#glowSoft)"/>
<circle cx="113.1" cy="417.3" r="11.5" fill="#0b0b0d" stroke="#eab308" stroke-width="1.5"/>
<rect x="108.25568112967531" y="412.4618261740699" width="9.600000000000001" height="9.600000000000001" rx="2" fill="none" stroke="#eab308" stroke-width="1.1199999999999999"/><line x1="108.25568112967531" y1="417.26182617406994" x2="117.8556811296753" y2="417.26182617406994" stroke="#eab308" stroke-width="0.8" opacity="0.6"/>
<text x="113.1" y="387.3" text-anchor="middle" font-family="Consolas, monospace" font-size="9" font-weight="700" letter-spacing="0.5" fill="#eab308">BUILDER</text>
<text x="113.1" y="399.3" text-anchor="middle" font-family="Helvetica, Arial, sans-serif" font-size="8" fill="#999">I ship products that</text>
<text x="113.1" y="411.3" text-anchor="middle" font-family="Helvetica, Arial, sans-serif" font-size="8" fill="#999">solve real problems.</text>
<line x1="220.0" y1="369.0" x2="129.6" y2="310.7" stroke="#22c55e" stroke-width="0.6" opacity="0.15"/>
<circle r="1.8" fill="#22c55e" filter="url(#glowSoft)"><animateMotion dur="3.4s" begin="-2.8s" repeatCount="indefinite" keyPoints="0;1;1;1" keyTimes="0;0.32;0.4;1" calcMode="linear" path="M220.0,369.0 L129.6,310.7"/><animate attributeName="opacity" values="0;1;1;0;0" keyTimes="0;0.05;0.32;0.4;1" dur="3.4s" begin="-2.8s" repeatCount="indefinite"/></circle>
<circle cx="129.6" cy="310.7" r="14" fill="#22c55e" opacity="0.15" filter="url(#glowSoft)"/>
<circle cx="129.6" cy="310.7" r="11.5" fill="#0b0b0d" stroke="#22c55e" stroke-width="1.5"/>
<path d="M129.6067557119606,304.32123903134607 C132.8067557119606,308.32123903134607 132.8067557119606,313.121239031346 129.6067557119606,317.121239031346 C126.4067557119606,313.121239031346 126.4067557119606,308.32123903134607 129.6067557119606,304.32123903134607 Z" fill="none" stroke="#22c55e" stroke-width="1.04"/><circle cx="129.6067557119606" cy="309.92123903134603" r="1.2800000000000002" fill="#22c55e"/>
<text x="129.6" y="336.7" text-anchor="middle" font-family="Consolas, monospace" font-size="9" font-weight="700" letter-spacing="0.5" fill="#22c55e">FOUNDER</text>
<text x="129.6" y="348.7" text-anchor="middle" font-family="Helvetica, Arial, sans-serif" font-size="8" fill="#999">I build from</text>
<text x="129.6" y="360.7" text-anchor="middle" font-family="Helvetica, Arial, sans-serif" font-size="8" fill="#999">zero to impact.</text>
</g>
<rect x="20" y="614" width="400" height="284" rx="12" fill="#0d0d10" stroke="#1f1f24"/>
<text x="36" y="634" font-family="Consolas, monospace" font-size="10" letter-spacing="1" fill="#888">// OPERATING PRINCIPLES</text>
<text x="36" y="654" font-family="Consolas, monospace" font-size="9.5" fill="#8a8a8a">&gt; Curiosity...................<tspan fill="#22c55e">[100%]</tspan></text>
<text x="36" y="672" font-family="Consolas, monospace" font-size="9.5" fill="#8a8a8a">&gt; Consistency.................<tspan fill="#22c55e">[INF]</tspan></text>
<text x="36" y="690" font-family="Consolas, monospace" font-size="9.5" fill="#8a8a8a">&gt; Ownership...................<tspan fill="#22c55e">[TRUE]</tspan></text>
<text x="36" y="708" font-family="Consolas, monospace" font-size="9.5" fill="#8a8a8a">&gt; Learning Velocity...........<tspan fill="#22c55e">[MAX]</tspan></text>
<text x="36" y="726" font-family="Consolas, monospace" font-size="9.5" fill="#8a8a8a">&gt; System Thinking.............<tspan fill="#22c55e">[ON]</tspan></text>
<text x="36" y="882" font-family="Consolas, monospace" font-size="9.5" font-weight="700" fill="#a855f7">&gt; ALWAYS BUILDING.</text>
<rect x="155.7" y="873" width="6" height="11" fill="#a855f7"><animate attributeName="opacity" values="1;0;1" dur="1s" repeatCount="indefinite"/></rect>
<circle cx="358" cy="852" r="10" fill="none" stroke="#22c55e" stroke-width="0.6" opacity="0.25"/>
<circle cx="358" cy="852" r="20" fill="none" stroke="#22c55e" stroke-width="0.6" opacity="0.25"/>
<circle cx="358" cy="852" r="30" fill="none" stroke="#22c55e" stroke-width="0.6" opacity="0.25"/>
<circle cx="358" cy="852" r="3" fill="#22c55e" filter="url(#glowSoft)"><animate attributeName="opacity" values="1;0.3;1" dur="1.6s" repeatCount="indefinite"/></circle>
<circle cx="366.0" cy="852.0" r="1.3" fill="#22c55e" opacity="0.6"/>
<circle cx="362.2" cy="864.3" r="1.3" fill="#22c55e" opacity="0.6"/>
<circle cx="343.8" cy="863.1" r="1.3" fill="#22c55e" opacity="0.6"/>
<circle cx="338.7" cy="839.5" r="1.3" fill="#22c55e" opacity="0.6"/>
<circle cx="364.8" cy="824.8" r="1.3" fill="#22c55e" opacity="0.6"/>
<rect x="440" y="170" width="440" height="330" rx="12" fill="#0d0d10" stroke="#1f1f24"/>
<text x="456" y="192" font-family="Consolas, monospace" font-size="11" font-weight="700" letter-spacing="1" fill="#ddd">// BIO.SYSTEM</text>
<text x="866" y="192" text-anchor="end" font-family="Consolas, monospace" font-size="8.5" fill="#666">LIVE FEED</text>
<circle cx="772" cy="188" r="2.5" fill="#ec4899"><animate attributeName="opacity" values="1;0.3;1" dur="1.4s" repeatCount="indefinite"/></circle>
<text x="456" y="214" font-family="Helvetica, Arial, sans-serif" font-size="12.5" fill="#d8d8d8">I'm an <tspan fill="#22d3ee">AI/ML engineer</tspan> and <tspan fill="#a855f7">founder</tspan> who builds systems</text>
<text x="456" y="235" font-family="Helvetica, Arial, sans-serif" font-size="12.5" fill="#d8d8d8">end-to-end &#8212; the model, the agent-orchestration</text>
<text x="456" y="256" font-family="Helvetica, Arial, sans-serif" font-size="12.5" fill="#d8d8d8">layer, the backend underneath, and the product</text>
<text x="456" y="277" font-family="Helvetica, Arial, sans-serif" font-size="12.5" fill="#d8d8d8">wrapped around it.</text>
<text x="456" y="319" font-family="Helvetica, Arial, sans-serif" font-size="12.5" fill="#d8d8d8">My work spans <tspan fill="#22d3ee">agentic orchestration</tspan> platforms,</text>
<text x="456" y="340" font-family="Helvetica, Arial, sans-serif" font-size="12.5" fill="#d8d8d8"><tspan fill="#a855f7">explainable ML scoring</tspan> systems, and</text>
<text x="456" y="361" font-family="Helvetica, Arial, sans-serif" font-size="12.5" fill="#d8d8d8"><tspan fill="#f5a623">reinforcement-learning</tspan> research, alongside</text>
<text x="456" y="382" font-family="Helvetica, Arial, sans-serif" font-size="12.5" fill="#d8d8d8">co-founding <tspan fill="#22c55e">Kovidam</tspan>, an AI talent-intelligence platform.</text>
<text x="456" y="424" font-family="Helvetica, Arial, sans-serif" font-size="12.5" fill="#d8d8d8">I care about systems that are <tspan fill="#e8e8e8" font-weight="700">architected</tspan>, not just</text>
<text x="456" y="445" font-family="Helvetica, Arial, sans-serif" font-size="12.5" fill="#d8d8d8">prompted &#8212; real backends, real data pipelines, real</text>
<text x="456" y="466" font-family="Helvetica, Arial, sans-serif" font-size="12.5" fill="#d8d8d8">evaluation, shipped as working software.</text>
<g transform="translate(840,476)"><animateTransform attributeName="transform" type="rotate" from="0 840 476" to="360 840 476" dur="26s" repeatCount="indefinite"/>
<circle cx="0" cy="0" r="17" fill="none" stroke="#3b82f6" stroke-width="0.8" opacity="0.35"/>
<ellipse cx="0" cy="0" rx="17" ry="11.6" fill="none" stroke="#3b82f6" stroke-width="0.6" opacity="0.3"/>
<ellipse cx="0" cy="0" rx="17" ry="6.1" fill="none" stroke="#3b82f6" stroke-width="0.6" opacity="0.3"/>
<ellipse cx="0" cy="0" rx="5.9" ry="17.0" fill="none" stroke="#3b82f6" stroke-width="0.6" opacity="0.3"/>
<ellipse cx="0" cy="0" rx="11.4" ry="17.0" fill="none" stroke="#3b82f6" stroke-width="0.6" opacity="0.3"/>
<ellipse cx="0" cy="0" rx="16.8" ry="17.0" fill="none" stroke="#3b82f6" stroke-width="0.6" opacity="0.3"/>
</g>
<rect x="440" y="514" width="440" height="140" rx="12" fill="#0d0d10" stroke="#1f1f24"/>
<text x="456" y="534" font-family="Consolas, monospace" font-size="10" letter-spacing="1" fill="#888">// CURRENT FOCUS</text>
<circle cx="495.0" cy="572" r="16" fill="#a855f7" opacity="0.12" filter="url(#glowSoft)"/>
<circle cx="495.0" cy="572" r="13.5" fill="#0b0b0d" stroke="#a855f7" stroke-width="1.4"/>
<rect x="488.0" y="567.0" width="14.0" height="11.0" rx="3" fill="none" stroke="#a855f7" stroke-width="1.3"/><circle cx="492.0" cy="572" r="1.4" fill="#a855f7"/><circle cx="498.0" cy="572" r="1.4" fill="#a855f7"/>
<text x="495.0" y="602" text-anchor="middle" font-family="Consolas, monospace" font-size="8" letter-spacing="0.4" fill="#aaa">AGENTIC AI</text>
<text x="495.0" y="613" text-anchor="middle" font-family="Consolas, monospace" font-size="8" letter-spacing="0.4" fill="#aaa">SYSTEMS</text>
<circle cx="605.0" cy="572" r="16" fill="#22d3ee" opacity="0.12" filter="url(#glowSoft)"/>
<circle cx="605.0" cy="572" r="13.5" fill="#0b0b0d" stroke="#22d3ee" stroke-width="1.4"/>
<rect x="598.0" y="566.0" width="14.0" height="3.0" rx="1.2" fill="none" stroke="#22d3ee" stroke-width="1.1"/><rect x="598.0" y="571.0" width="14.0" height="3.0" rx="1.2" fill="none" stroke="#22d3ee" stroke-width="1.1"/><rect x="598.0" y="576.0" width="14.0" height="3.0" rx="1.2" fill="none" stroke="#22d3ee" stroke-width="1.1"/>
<text x="605.0" y="602" text-anchor="middle" font-family="Consolas, monospace" font-size="8" letter-spacing="0.4" fill="#aaa">SYSTEM</text>
<text x="605.0" y="613" text-anchor="middle" font-family="Consolas, monospace" font-size="8" letter-spacing="0.4" fill="#aaa">ARCHITECTURE</text>
<circle cx="715.0" cy="572" r="16" fill="#ec4899" opacity="0.12" filter="url(#glowSoft)"/>
<circle cx="715.0" cy="572" r="13.5" fill="#0b0b0d" stroke="#ec4899" stroke-width="1.4"/>
<circle cx="712.0" cy="570.0" r="2.6" fill="none" stroke="#ec4899" stroke-width="1.2"/><circle cx="718.0" cy="570.0" r="2.6" fill="none" stroke="#ec4899" stroke-width="1.2"/><path d="M708.0,579.0 Q712.0,574.0 715.0,577.0 Q718.0,574.0 722.0,579.0" fill="none" stroke="#ec4899" stroke-width="1.2"/>
<text x="715.0" y="602" text-anchor="middle" font-family="Consolas, monospace" font-size="8" letter-spacing="0.4" fill="#aaa">AI TALENT</text>
<text x="715.0" y="613" text-anchor="middle" font-family="Consolas, monospace" font-size="8" letter-spacing="0.4" fill="#aaa">INTELLIGENCE</text>
<circle cx="825.0" cy="572" r="16" fill="#22c55e" opacity="0.12" filter="url(#glowSoft)"/>
<circle cx="825.0" cy="572" r="13.5" fill="#0b0b0d" stroke="#22c55e" stroke-width="1.4"/>
<circle cx="825.0" cy="572" r="7.0" fill="none" stroke="#22c55e" stroke-width="1.2"/><circle cx="825.0" cy="572" r="3.4" fill="none" stroke="#22c55e" stroke-width="1.2"/><circle cx="825.0" cy="572" r="1.1" fill="#22c55e"/>
<text x="825.0" y="602" text-anchor="middle" font-family="Consolas, monospace" font-size="8" letter-spacing="0.4" fill="#aaa">REAL-WORLD</text>
<text x="825.0" y="613" text-anchor="middle" font-family="Consolas, monospace" font-size="8" letter-spacing="0.4" fill="#aaa">IMPACT</text>
<line x1="470" y1="642" x2="850" y2="642" stroke="#242430" stroke-width="1"/>
<circle cx="495.0" cy="642" r="2" fill="#a855f7"/>
<circle cx="605.0" cy="642" r="2" fill="#22d3ee"/>
<circle cx="715.0" cy="642" r="2" fill="#ec4899"/>
<circle cx="825.0" cy="642" r="2" fill="#22c55e"/>
<rect x="440" y="668" width="440" height="108" rx="12" fill="#0d0d10" stroke="#1f1f24"/>
<text x="456" y="690" font-family="Consolas, monospace" font-size="11" font-weight="700" letter-spacing="1" fill="#aaa">// TECH APPROACH</text>
<line x1="474" y1="732" x2="846" y2="732" stroke="#2a2a38" stroke-width="2"/>
<circle r="4.5" fill="#22d3ee" filter="url(#glow)"><animateMotion dur="4.5s" repeatCount="indefinite" path="M474,732 L846,732" calcMode="linear"/></circle>
<circle cx="496.8" cy="732" r="15" fill="#3b82f6" opacity="0.12" filter="url(#glowSoft)"/>
<circle cx="496.8" cy="732" r="15" fill="#0b0b0d" stroke="#3b82f6" stroke-width="1.6"/>
<circle cx="495.225" cy="730.425" r="5.25" fill="none" stroke="#3b82f6" stroke-width="1.3650000000000002"/><line x1="499.425" y1="734.625" x2="503.625" y2="738.825" stroke="#3b82f6" stroke-width="1.3650000000000002" stroke-linecap="round"/>
<text x="496.8" y="764" text-anchor="middle" font-family="Consolas, monospace" font-size="9.5" font-weight="700" letter-spacing="0.6" fill="#bbb">RESEARCH</text>
<path d="M533.6,728 L541.6,732 L533.6,736" fill="none" stroke="#3b82f6" stroke-width="1.6" stroke-linecap="round" stroke-linejoin="round" opacity="0.75"/>
<circle cx="578.4" cy="732" r="15" fill="#3b82f6" opacity="0.12" filter="url(#glowSoft)"/>
<circle cx="578.4" cy="732" r="15" fill="#0b0b0d" stroke="#3b82f6" stroke-width="1.6"/>
<path d="M572.1,738.3 L574.1999999999999,729.9 L582.6,723.6 L585.75,726.75 L577.35,735.15 Z" fill="none" stroke="#3b82f6" stroke-width="1.26" stroke-linejoin="round"/>
<text x="578.4" y="764" text-anchor="middle" font-family="Consolas, monospace" font-size="9.5" font-weight="700" letter-spacing="0.6" fill="#bbb">DESIGN</text>
<path d="M615.2,728 L623.2,732 L615.2,736" fill="none" stroke="#3b82f6" stroke-width="1.6" stroke-linecap="round" stroke-linejoin="round" opacity="0.75"/>
<circle cx="660.0" cy="732" r="15" fill="#3b82f6" opacity="0.12" filter="url(#glowSoft)"/>
<circle cx="660.0" cy="732" r="15" fill="#0b0b0d" stroke="#3b82f6" stroke-width="1.6"/>
<polyline points="654.75,727.8 651.6,732 654.75,736.2" fill="none" stroke="#3b82f6" stroke-width="1.47" stroke-linecap="round" stroke-linejoin="round"/><polyline points="665.25,727.8 668.4,732 665.25,736.2" fill="none" stroke="#3b82f6" stroke-width="1.47" stroke-linecap="round" stroke-linejoin="round"/>
<text x="660.0" y="764" text-anchor="middle" font-family="Consolas, monospace" font-size="9.5" font-weight="700" letter-spacing="0.6" fill="#bbb">BUILD</text>
<path d="M696.8,728 L704.8,732 L696.8,736" fill="none" stroke="#3b82f6" stroke-width="1.6" stroke-linecap="round" stroke-linejoin="round" opacity="0.75"/>
<circle cx="741.6" cy="732" r="15" fill="#3b82f6" opacity="0.12" filter="url(#glowSoft)"/>
<circle cx="741.6" cy="732" r="15" fill="#0b0b0d" stroke="#3b82f6" stroke-width="1.6"/>
<rect x="734.2499999999999" y="733.05" width="3.57" height="5.25" fill="#3b82f6"/><rect x="739.4999999999999" y="728.8499999999999" width="3.57" height="9.450000000000001" fill="#3b82f6"/><rect x="744.7499999999999" y="724.65" width="3.57" height="13.65" fill="#3b82f6"/>
<text x="741.6" y="764" text-anchor="middle" font-family="Consolas, monospace" font-size="9.5" font-weight="700" letter-spacing="0.6" fill="#bbb">VALIDATE</text>
<path d="M778.3999999999999,728 L786.3999999999999,732 L778.3999999999999,736" fill="none" stroke="#3b82f6" stroke-width="1.6" stroke-linecap="round" stroke-linejoin="round" opacity="0.75"/>
<circle cx="823.2" cy="732" r="15" fill="#3b82f6" opacity="0.12" filter="url(#glowSoft)"/>
<circle cx="823.2" cy="732" r="15" fill="#0b0b0d" stroke="#3b82f6" stroke-width="1.6"/>
<path d="M823.1999999999999,723.6 C827.4,728.85 827.4,735.15 823.1999999999999,740.4 C818.9999999999999,735.15 818.9999999999999,728.85 823.1999999999999,723.6 Z" fill="none" stroke="#3b82f6" stroke-width="1.3650000000000002"/><circle cx="823.1999999999999" cy="730.95" r="1.6800000000000002" fill="#3b82f6"/>
<text x="823.2" y="764" text-anchor="middle" font-family="Consolas, monospace" font-size="9.5" font-weight="700" letter-spacing="0.6" fill="#bbb">DEPLOY</text>
<rect x="440" y="790" width="440" height="108" rx="12" fill="#0d0d10" stroke="#1f1f24"/>
<text x="456" y="810" font-family="Consolas, monospace" font-size="10" letter-spacing="1" fill="#888">// IN A LINE</text>
<text x="456" y="834" font-family="Consolas, monospace" font-size="9" fill="#555">[</text>
<text x="470" y="834" font-family="Helvetica, Arial, sans-serif" font-size="12" fill="#ddd">I design <tspan fill="#22d3ee">intelligent systems</tspan>.</text>
<text x="470" y="856" font-family="Helvetica, Arial, sans-serif" font-size="12" fill="#ddd">I build <tspan fill="#a855f7">agentic products</tspan>. I create <tspan fill="#22c55e">measurable impact</tspan>.</text>
<text x="864" y="856" text-anchor="end" font-family="Consolas, monospace" font-size="9" fill="#555">]</text>
<rect x="20" y="916" width="860" height="56" rx="10" fill="#0d0d10" stroke="#1f1f24"/>
<text x="36" y="938" font-family="Consolas, monospace" font-size="9.5" font-weight="700" fill="#ddd">&gt; IDENTITY.LOG</text>
<text x="36" y="954" font-family="Consolas, monospace" font-size="8.5" fill="#666">Boot sequence initiated&#8230;</text>
<text x="230.0" y="936" font-family="Consolas, monospace" font-size="8" letter-spacing="0.5" fill="#888">INITIALIZING</text>
<circle cx="230.0" cy="946" r="2" fill="#a855f7"><animate attributeName="opacity" values="0.15;1;0.15" dur="1.4s" begin="0.00s" repeatCount="indefinite"/></circle>
<circle cx="239.0" cy="946" r="2" fill="#a855f7"><animate attributeName="opacity" values="0.15;1;0.15" dur="1.4s" begin="0.15s" repeatCount="indefinite"/></circle>
<circle cx="248.0" cy="946" r="2" fill="#a855f7"><animate attributeName="opacity" values="0.15;1;0.15" dur="1.4s" begin="0.30s" repeatCount="indefinite"/></circle>
<circle cx="257.0" cy="946" r="2" fill="#a855f7"><animate attributeName="opacity" values="0.15;1;0.15" dur="1.4s" begin="0.45s" repeatCount="indefinite"/></circle>
<text x="326.0" y="936" font-family="Consolas, monospace" font-size="8" letter-spacing="0.5" fill="#888">LOADING CORE</text>
<circle cx="326.0" cy="946" r="2" fill="#22d3ee"><animate attributeName="opacity" values="0.15;1;0.15" dur="1.4s" begin="1.00s" repeatCount="indefinite"/></circle>
<circle cx="335.0" cy="946" r="2" fill="#22d3ee"><animate attributeName="opacity" values="0.15;1;0.15" dur="1.4s" begin="1.15s" repeatCount="indefinite"/></circle>
<circle cx="344.0" cy="946" r="2" fill="#22d3ee"><animate attributeName="opacity" values="0.15;1;0.15" dur="1.4s" begin="1.30s" repeatCount="indefinite"/></circle>
<circle cx="353.0" cy="946" r="2" fill="#22d3ee"><animate attributeName="opacity" values="0.15;1;0.15" dur="1.4s" begin="1.45s" repeatCount="indefinite"/></circle>
<text x="422.0" y="936" font-family="Consolas, monospace" font-size="8" letter-spacing="0.5" fill="#888">VERIFYING SYSTEMS</text>
<circle cx="422.0" cy="946" r="2" fill="#3b82f6"><animate attributeName="opacity" values="0.15;1;0.15" dur="1.4s" begin="2.00s" repeatCount="indefinite"/></circle>
<circle cx="431.0" cy="946" r="2" fill="#3b82f6"><animate attributeName="opacity" values="0.15;1;0.15" dur="1.4s" begin="2.15s" repeatCount="indefinite"/></circle>
<circle cx="440.0" cy="946" r="2" fill="#3b82f6"><animate attributeName="opacity" values="0.15;1;0.15" dur="1.4s" begin="2.30s" repeatCount="indefinite"/></circle>
<circle cx="449.0" cy="946" r="2" fill="#3b82f6"><animate attributeName="opacity" values="0.15;1;0.15" dur="1.4s" begin="2.45s" repeatCount="indefinite"/></circle>
<text x="518.0" y="936" font-family="Consolas, monospace" font-size="8" letter-spacing="0.5" fill="#888">SYNCHRONIZING</text>
<circle cx="518.0" cy="946" r="2" fill="#22c55e"><animate attributeName="opacity" values="0.15;1;0.15" dur="1.4s" begin="3.00s" repeatCount="indefinite"/></circle>
<circle cx="527.0" cy="946" r="2" fill="#22c55e"><animate attributeName="opacity" values="0.15;1;0.15" dur="1.4s" begin="3.15s" repeatCount="indefinite"/></circle>
<circle cx="536.0" cy="946" r="2" fill="#22c55e"><animate attributeName="opacity" values="0.15;1;0.15" dur="1.4s" begin="3.30s" repeatCount="indefinite"/></circle>
<circle cx="545.0" cy="946" r="2" fill="#22c55e"><animate attributeName="opacity" values="0.15;1;0.15" dur="1.4s" begin="3.45s" repeatCount="indefinite"/></circle>
<text x="614.0" y="936" font-family="Consolas, monospace" font-size="8" letter-spacing="0.5" fill="#888">SYSTEM ONLINE</text>
<circle cx="614.0" cy="946" r="2" fill="#22c55e"><animate attributeName="opacity" values="1;0.4;1" dur="1.4s" begin="4.00s" repeatCount="indefinite"/></circle>
<circle cx="623.0" cy="946" r="2" fill="#22c55e"><animate attributeName="opacity" values="1;0.4;1" dur="1.4s" begin="4.15s" repeatCount="indefinite"/></circle>
<circle cx="632.0" cy="946" r="2" fill="#22c55e"><animate attributeName="opacity" values="1;0.4;1" dur="1.4s" begin="4.30s" repeatCount="indefinite"/></circle>
<circle cx="641.0" cy="946" r="2" fill="#22c55e"><animate attributeName="opacity" values="1;0.4;1" dur="1.4s" begin="4.45s" repeatCount="indefinite"/></circle>
<text x="730" y="936" font-family="Consolas, monospace" font-size="8.5" fill="#666">LAST SYNC</text>
<text x="730" y="950" font-family="Consolas, monospace" font-size="8.5" fill="#999">2026-08-29 00:04 UTC</text>
<circle cx="860" cy="943" r="9" fill="none" stroke="#22d3ee" stroke-width="1.4" stroke-dasharray="8 5"><animateTransform attributeName="transform" type="rotate" from="0 860 943" to="360 860 943" dur="3s" repeatCount="indefinite"/></circle>
</svg>